<?xml version="1.0" encoding="utf-8"?>
<!-- Generator: Adobe Illustrator 23.0.1, SVG Export Plug-In . SVG Version: 6.00 Build 0)  -->
<svg version="1.1" id="Layer_1" xmlns="http://www.w3.org/2000/svg" xmlns:xlink="http://www.w3.org/1999/xlink" x="0px" y="0px"
	 viewBox="0 0 512 512" style="enable-background:new 0 0 512 512;" xml:space="preserve">
<style type="text/css">
	.st0{fill:#FFFFFF;}
</style>
<title>linkedin-glyph</title>
<path class="st0" d="M256,0C114.6,0,0,114.6,0,256s114.6,256,256,256s256-114.6,256-256S397.4,0,256,0z M175.8,398.2h-59.5V207h59.5
	V398.2z M146,180.9c-19,0-34.4-15.4-34.4-34.4c0-19,15.4-34.5,34.5-34.5c19,0,34.4,15.4,34.4,34.5C180.5,165.5,165,180.9,146,180.9z
	 M398.3,398.2h-59.4v-93c0-22.2-0.4-50.7-30.9-50.7c-30.9,0-35.6,24.2-35.6,49.1v94.5H213V207h57v26.1h0.8
	c7.9-15,27.3-30.9,56.2-30.9c60.2,0,71.3,39.6,71.3,91.1V398.2z"/>
</svg>
